<?xml version="1.0" standalone="no"?>
<!DOCTYPE svg PUBLIC "-//W3C//DTD SVG 20010904//EN"
 "http://www.w3.org/TR/2001/REC-SVG-20010904/DTD/svg10.dtd">
<svg version="1.0" xmlns="http://www.w3.org/2000/svg"
 width="1500.000000pt" height="1100.000000pt" viewBox="0 0 1500.000000 1100.000000"
 preserveAspectRatio="xMidYMid meet">

<g transform="translate(0.000000,1100.000000) scale(0.100000,-0.100000)"
fill="#000000" stroke="none">
<path d="M0 5500 l0 -5500 7500 0 7500 0 0 5500 0 5500 -7500 0 -7500 0 0
-5500z m8520 2530 l0 -350 -1330 0 -1330 0 0 -665 0 -665 -355 0 -355 0 0
1015 0 1015 1685 0 1685 0 0 -350z m1330 -665 l0 -1015 -1330 0 c-1260 0
-1330 -1 -1330 -17 0 -10 0 -624 0 -1365 l0 -1348 -355 0 -355 0 2 1718 3
1717 1327 0 1328 0 0 663 0 662 355 0 355 0 0 -1015z m-1342 -2692 l2 -1053
-350 0 -350 0 0 1048 c0 577 3 1052 6 1055 4 4 160 6 348 4 l341 -2 3 -1052z
m-7756 -3968 c-4 -35 -4 -35 36 -35 24 0 49 -7 63 -19 21 -17 23 -27 24 -107
0 -85 -1 -89 -22 -92 -22 -3 -23 0 -23 72 0 54 -4 79 -16 90 -18 19 -20 19
-45 6 -16 -9 -19 -22 -19 -90 0 -73 -2 -80 -20 -80 -24 0 -22 -9 -24 157 l-1
133 25 0 c24 0 26 -3 22 -35z m408 0 c0 -33 2 -35 35 -35 31 0 35 3 35 25 0
14 8 29 19 35 29 15 31 13 31 -25 0 -31 3 -35 25 -35 20 0 25 -5 25 -25 0 -20
-5 -25 -25 -25 -24 0 -25 -3 -25 -55 0 -50 2 -55 25 -61 26 -6 29 -12 19 -38
-9 -24 -41 -19 -69 9 -21 20 -25 34 -25 85 l0 60 -35 0 -35 0 0 -54 c0 -45 3
-56 19 -61 19 -6 34 -39 23 -49 -13 -13 -45 -4 -67 19 -21 20 -25 34 -25 85 0
33 -4 60 -10 60 -5 0 -10 11 -10 25 0 14 5 25 10 25 6 0 10 11 10 25 0 21 21
44 43 45 4 0 7 -16 7 -35z m740 0 c0 -31 3 -35 25 -35 20 0 25 -5 25 -25 0
-20 -5 -25 -25 -25 -24 0 -25 -3 -25 -54 0 -45 3 -56 19 -61 21 -6 35 -42 20
-51 -12 -7 -50 5 -71 24 -14 11 -18 31 -18 78 0 38 -4 64 -12 66 -17 6 -19 38
-2 45 8 3 14 16 14 29 0 20 22 43 43 44 4 0 7 -16 7 -35z m500 -37 l1 -73 32
38 c23 26 40 37 60 37 15 0 27 -3 27 -7 0 -4 -18 -26 -41 -49 l-41 -42 41 -52
c48 -60 50 -70 17 -70 -17 0 -33 12 -53 40 -15 22 -31 40 -35 40 -4 0 -8 -17
-10 -37 -2 -31 -7 -39 -25 -41 -23 -3 -23 -3 -23 142 l0 146 25 0 c24 0 25 -2
25 -72z m10270 -48 c0 -33 -4 -60 -10 -60 -11 0 -14 103 -3 113 12 12 13 8 13
-53z m70 23 l14 -38 15 37 c24 58 41 49 41 -22 0 -33 -4 -60 -10 -60 -5 0 -10
19 -10 43 l-1 42 -14 -32 c-8 -18 -17 -33 -20 -33 -3 0 -12 15 -20 33 l-14 32
-1 -42 c0 -24 -4 -43 -10 -43 -6 0 -10 27 -10 60 0 71 18 81 40 23z m169 -19
c24 -64 24 -64 11 -64 -5 0 -10 7 -10 15 0 10 -10 15 -30 15 -20 0 -30 -5 -30
-15 0 -8 -4 -15 -10 -15 -13 0 -13 11 4 51 7 19 16 42 19 52 11 30 23 19 46
-39z m128 41 c2 -5 -14 -10 -34 -10 -34 0 -38 -3 -41 -28 -4 -33 13 -57 39
-57 27 0 35 21 14 37 -18 12 -18 13 4 13 18 0 22 -5 19 -27 -2 -23 -9 -29 -34
-31 -57 -6 -86 57 -47 100 18 20 74 22 80 3z m103 5 c0 -5 -11 -10 -25 -10
-16 0 -25 -6 -25 -15 0 -9 9 -15 25 -15 14 0 25 -4 25 -10 0 -5 -11 -10 -25
-10 -18 0 -25 -5 -25 -19 0 -15 8 -21 33 -24 28 -3 26 -4 -10 -5 l-43 -2 0 60
0 60 35 0 c19 0 35 -4 35 -10z m100 -50 c0 -33 -4 -60 -10 -60 -6 0 -10 27
-10 60 0 33 4 60 10 60 6 0 10 -27 10 -60z m110 40 c41 -41 13 -100 -47 -100
l-33 0 0 60 0 60 30 0 c17 0 39 -9 50 -20z m190 -30 c0 -36 5 -52 18 -59 13
-8 9 -10 -23 -10 -22 1 -32 3 -22 6 13 3 17 15 17 49 0 35 -3 44 -17 44 -15 0
-16 2 -3 10 26 17 30 11 30 -40z m116 42 c7 -4 11 -29 10 -57 -1 -49 -2 -50
-31 -50 -29 0 -30 1 -31 50 -2 47 7 65 31 65 6 0 15 -4 21 -8z m101 0 c36 -23
20 -112 -21 -112 -27 0 -36 16 -36 64 0 46 26 68 57 48z m113 -2 c0 -6 -6 -10
-12 -9 -27 3 -38 -2 -38 -16 0 -8 6 -12 14 -9 17 7 48 -24 44 -44 -5 -24 -35
-39 -55 -26 -24 15 -29 77 -8 98 18 18 55 22 55 6z m94 -6 c34 -34 12 -105
-32 -103 l-27 1 25 7 c14 4 26 15 28 24 2 12 -1 15 -12 11 -34 -13 -61 37 -34
64 16 16 33 15 52 -4z m100 0 c17 -17 10 -40 -18 -64 -23 -18 -20 -28 12 -33
19 -3 14 -4 -16 -6 -38 -1 -42 1 -33 17 5 9 19 26 30 36 36 33 27 51 -24 47
-17 -2 -17 0 -5 8 21 15 36 13 54 -5z m106 6 c0 -5 -11 -10 -25 -10 -34 0 -31
-13 5 -27 49 -19 34 -74 -19 -72 l-26 1 25 7 c15 4 26 15 28 29 3 18 -2 22
-22 22 -22 0 -26 4 -26 30 0 27 3 30 30 30 17 0 30 -4 30 -10z m97 2 c7 -4 11
-28 10 -57 -2 -48 -3 -50 -32 -50 -29 0 -30 1 -31 50 -2 58 18 79 53 57z m108
-19 c-10 -41 -35 -97 -40 -91 -3 3 2 24 10 48 19 53 20 50 -10 50 -14 0 -25 5
-25 10 0 6 16 10 36 10 34 0 36 -1 29 -27z m99 11 c30 -29 13 -104 -22 -104
-28 0 -42 21 -42 60 0 55 32 77 64 44z m-13805 -3 c8 -5 11 -16 7 -28 -6 -18
-13 -20 -51 -15 -36 4 -45 1 -45 -11 0 -9 16 -19 45 -26 67 -17 84 -63 40
-106 -19 -20 -34 -25 -72 -25 -60 0 -79 11 -65 36 8 14 20 18 55 15 72 -4 71
28 -1 44 -57 12 -70 88 -20 113 28 13 88 15 107 3z m281 -75 c5 -82 19 -106
54 -93 13 5 16 22 16 92 0 84 0 85 25 85 l25 0 0 -100 c0 -99 0 -101 -26 -110
-45 -18 -101 -12 -124 12 -17 19 -20 35 -20 111 0 86 1 88 23 85 20 -3 22 -9
27 -82z m540 64 c21 -21 22 -24 24 -77 l1 -33 -57 0 c-53 0 -58 -2 -58 -21 0
-20 4 -21 43 -16 23 3 49 2 57 -4 24 -16 -24 -49 -71 -49 -61 0 -79 25 -79
110 0 86 18 110 80 110 27 0 47 -7 60 -20z m160 -4 c0 -19 -6 -25 -27 -28 -27
-3 -28 -5 -33 -83 -5 -74 -7 -80 -27 -83 -22 -3 -23 -1 -23 87 0 85 1 91 26
110 15 12 40 21 55 21 24 0 29 -4 29 -24z m156 11 c3 -3 1 -14 -4 -23 -8 -14
-20 -18 -51 -15 -31 2 -41 -1 -41 -13 0 -14 8 -18 61 -30 51 -11 58 -90 10
-115 -24 -13 -100 -14 -120 -2 -8 5 -11 16 -7 29 6 17 13 19 46 15 52 -7 77 2
60 22 -7 8 -22 15 -34 15 -60 0 -88 68 -45 111 18 18 30 20 70 17 27 -3 52 -8
55 -11z m269 -14 c1 -19 -4 -23 -26 -23 -28 0 -43 -22 -37 -51 2 -9 -6 -14
-22 -14 -23 0 -25 3 -23 40 3 49 33 77 76 73 23 -2 31 -8 32 -25z m229 6 c14
-11 26 -24 26 -29 0 -15 -40 -22 -55 -10 -8 6 -24 10 -37 8 -21 -3 -23 -8 -23
-58 0 -50 2 -55 23 -58 13 -2 29 2 37 8 15 12 55 5 55 -10 0 -5 -12 -18 -26
-29 -37 -29 -89 -27 -119 4 -21 20 -25 34 -25 85 0 51 4 65 25 85 30 31 82 33
119 4z m281 1 c0 -8 -10 -16 -22 -18 -18 -3 -23 2 -23 18 0 16 5 21 23 18 12
-2 22 -10 22 -18z m10825 -80 c0 -5 -2 -10 -4 -10 -3 0 -8 5 -11 10 -3 6 -1
10 4 10 6 0 11 -4 11 -10z m-11270 -40 c0 -52 -28 -82 -73 -78 -24 2 -33 8
-35 25 -3 17 2 22 25 25 19 2 29 10 31 23 6 37 11 45 32 45 17 0 20 -6 20 -40z
m11258 -176 c6 -1 17 -2 22 -2 6 -1 9 -19 9 -39 l-2 -38 -6 35 c-4 22 -12 35
-21 35 -9 0 -17 -13 -21 -35 -5 -27 -6 -22 -7 25 0 33 3 51 6 40 4 -11 13 -20
20 -21z m730 -8 l27 17 -19 -21 c-18 -21 -18 -23 -1 -42 22 -24 11 -27 -13 -4
-15 15 -16 15 -23 -2 -5 -11 -7 6 -7 41 1 34 3 45 5 27 l4 -33 27 17z m-509 6
c-15 -6 -10 -60 6 -65 11 -4 10 -4 -2 -3 -12 1 -20 12 -23 36 -8 47 -2 63 15
47 7 -7 9 -13 4 -15z m279 8 c15 -1 15 -2 0 -11 -10 -5 -18 -19 -18 -29 0 -10
8 -24 18 -30 15 -10 15 -10 -3 -8 -14 2 -22 13 -25 38 -6 36 0 75 8 52 2 -7
11 -12 20 -12z m-328 0 c10 -6 11 -10 3 -10 -8 0 -13 -13 -13 -29 0 -16 6 -32
13 -34 7 -3 5 -6 -5 -6 -10 -1 -19 5 -19 12 -1 6 -3 27 -5 45 -4 34 1 38 26
22z m-639 -27 c8 -19 13 -23 16 -13 13 44 15 45 28 15 l13 -30 7 28 c10 40 18
26 10 -17 -9 -43 -20 -46 -33 -8 l-10 27 -7 -27 c-10 -39 -21 -35 -33 12 -11
46 -7 53 9 13z m135 2 l12 30 12 -30 c8 -20 14 -25 17 -15 12 38 14 43 18 38
7 -6 -15 -78 -24 -78 -4 0 -12 12 -18 28 -10 24 -11 25 -12 5 -1 -23 -16 -39
-24 -26 -3 5 -7 24 -11 43 l-6 35 12 -30 11 -30 13 30z m96 -10 c4 -17 7 -16
18 10 l12 30 11 -30 10 -30 13 30 c15 35 19 9 4 -30 -11 -29 -30 -25 -30 6 0
11 -4 17 -10 14 -5 -3 -10 -15 -10 -26 0 -26 -17 -24 -25 4 -16 56 -17 62 -7
52 5 -5 12 -19 14 -30z m158 24 l-25 -10 28 -15 c35 -19 30 -38 -9 -41 -20 -1
-22 0 -6 4 27 6 29 20 2 28 -35 11 -24 46 14 44 19 0 18 -1 -4 -10z m200 -29
c0 -37 -2 -40 -29 -40 -21 0 -30 6 -35 23 -8 32 -7 47 4 47 6 0 10 -13 10 -30
0 -19 5 -30 14 -30 15 0 26 21 26 51 0 10 2 19 5 19 3 0 5 -18 5 -40z m190 25
c15 -18 7 -29 -20 -30 -31 0 -27 -19 6 -26 27 -6 28 -7 4 -8 -29 -1 -50 15
-50 39 0 36 38 51 60 25z m61 6 c-7 -5 -17 -24 -21 -42 l-8 -34 -1 40 c-1 35
2 41 21 42 16 2 19 0 9 -6z m57 2 c-24 -6 -23 -24 2 -30 31 -8 21 -38 -13 -39
-25 -1 -25 -1 -2 3 26 5 35 23 11 23 -7 0 -18 6 -25 13 -13 16 4 38 29 36 11
-1 11 -2 -2 -6z m152 -8 c20 -24 4 -65 -25 -65 -18 0 -26 7 -31 25 -7 27 9 55
31 55 7 0 18 -7 25 -15z m62 4 c-31 -12 -26 -50 8 -61 23 -6 23 -7 -5 -5 -25
2 -31 7 -33 31 -4 29 10 46 38 45 8 0 5 -4 -8 -10z m228 1 c0 -5 -6 -7 -13 -4
-18 6 -41 -21 -34 -40 3 -8 16 -17 29 -19 16 -4 14 -5 -7 -4 -23 2 -31 7 -33
25 -2 13 2 30 8 38 14 16 50 19 50 4z m79 -12 c12 -31 -5 -60 -32 -56 -16 2
-23 11 -25 32 -6 46 42 65 57 24z m133 8 c4 -6 7 -24 6 -41 -1 -27 -1 -28 -5
-5 -11 56 -42 62 -44 7 -1 -34 -3 -30 -13 16 -9 37 -29 29 -37 -14 l-6 -34 -2
41 -1 40 48 1 c26 0 50 -5 54 -11z m-1217 -56 c3 -5 1 -10 -4 -10 -6 0 -11 5
-11 10 0 6 2 10 4 10 3 0 8 -4 11 -10z m920 0 c3 -5 1 -10 -4 -10 -6 0 -11 5
-11 10 0 6 2 10 4 10 3 0 8 -4 11 -10z"/>
<path d="M12870 641 c0 -5 -3 -16 -6 -25 -4 -11 0 -16 14 -16 15 0 19 5 15 20
-6 22 -23 38 -23 21z"/>
<path d="M13290 615 c0 -46 7 -53 41 -35 34 19 21 80 -17 80 -22 0 -24 -4 -24
-45z"/>
<path d="M13620 655 c-10 -12 -9 -16 5 -21 23 -9 40 10 22 25 -11 9 -17 8 -27
-4z"/>
<path d="M13612 593 c4 -22 43 -25 43 -3 0 8 -11 16 -23 18 -19 3 -23 0 -20
-15z"/>
<path d="M13719 647 c-15 -34 -4 -79 19 -75 23 4 29 70 8 87 -13 11 -17 9 -27
-12z"/>
<path d="M13822 598 c2 -13 10 -23 18 -23 8 0 16 10 18 23 3 17 -2 22 -18 22
-16 0 -21 -5 -18 -22z"/>
<path d="M13924 656 c-8 -22 3 -49 19 -43 6 2 12 14 12 27 0 27 -22 39 -31 16z"/>
<path d="M14233 654 c-7 -19 2 -28 22 -21 19 8 19 23 0 31 -9 3 -18 -1 -22
-10z"/>
<path d="M14229 604 c-9 -11 -9 -18 -1 -26 14 -14 42 -3 42 16 0 20 -27 27
-41 10z"/>
<path d="M14440 660 c-16 -10 -18 -66 -3 -81 18 -18 33 0 33 41 0 42 -8 53
-30 40z"/>
<path d="M1400 600 c0 -16 7 -20 36 -20 29 0 35 3 30 16 -3 9 -6 18 -6 20 0 2
-13 4 -30 4 -23 0 -30 -4 -30 -20z"/>
<path d="M13675 340 c-3 -5 3 -10 15 -10 12 0 18 5 15 10 -3 6 -10 10 -15 10
-5 0 -12 -4 -15 -10z"/>
<path d="M13941 337 c-13 -17 -5 -47 14 -47 19 0 28 32 12 47 -12 12 -16 12
-26 0z"/>
<path d="M14304 336 c-8 -22 3 -49 19 -43 6 2 12 14 12 27 0 27 -22 39 -31 16z"/>
</g>
</svg>
